<svg width="618" height="411" viewBox="0 0 618 411" fill="black" xmlns="http://www.w3.org/2000/svg">
<path d="M0 21H76.75H115.125H134.312L144 22L153 23L161 25L168 27L176 30L181 32L188 35L194 38L200 41L205 44L210 47L215 50L220 53L224 56L229 60L233 63L237 66L240 69L243 72L247 76L250 79L254 83L257 86L260 90L263 94L267 99L270 104L273 108L275 111L277 114L280 120L282 124L284 128L286 132L288 136L290 141L292 146L294 152L295 156L296 160L297 164L298 168L299 173L300 178L301 183L301.5 186L302 190V194V206V215V220V226L416 0L518 206L567.5 308L617.5 411H407H277.5L307 368L552 370L416 93L318.5 277L342.5 293L356.5 268H358.5L359.5 266L341 252L344 246.5L400.5 284L479.5 338H489H491.5L482.5 320L466.5 288L445.5 247L414.5 188L405.5 206L378.5 257L374.5 253L387.5 228L405.5 193L414.5 175L425.5 196L460.5 265L481.5 306.5L498.5 338L501.5 345H478.5L451.5 327H270L263 336L255 345L248 351L241 357L234 363L227 368L216 375L206 381L193 388L184 392L171 397L155 402L138 406L124 408L102 410H0V313.5V210.5V63H43V283.5V366H73H102L117 365L127 363L139 361L148 358L159 354L168 350L176 346L183 342L191 337L199 331L207 325L214 319L221 312L227 306L233 298L237 292L242 284L246 276L250 267L253 258L256 248L258 241L259 233L260 225V210.5V201L259 192L258 182L256 173L252 163L248 152L244 143L240 136L233 126L227 118L220 111L213 104L206 98L199 93L193 89L187 85L179 80L171 76L162 72L153 69L137 65L120.5 63H0V21Z" fill="white"/>
<path d="M77 107H125H133L135 107.5L137 108L139.5 109" stroke="white" stroke-width="6"/>
<path d="M150 109L158 112L169 117L180 124L187 129L193 134L200 141L205 147L215 162L221 173L225 184L228 195L230 211V226L228 240L224 251L219 265L213 275L206 285L198 295L189 303L177 313L167 319L155 325L141 330L131 333L124 335L116 336L107 337H77V331L116 330L123 329L133 327L146 323L158 318L170 311L180 304L191 294L199 286L206 277L212 267L217 256L221 244L224 231L225 215L224 200L221 189L218 180L214 170L208 160L200 149L190 139L181 132L172 126L161 120L154 117L146 114L150 109Z" fill="white"/>
</svg>
